<svg xmlns="http://www.w3.org/2000/svg" viewBox="0 0 128 128" role="img" aria-label="Python icon">
  <defs>
    <linearGradient id="pyA" x1="0" y1="0" x2="1" y2="1">
      <stop offset="0%" stop-color="#4B8BBE"/>
      <stop offset="100%" stop-color="#306998"/>
    </linearGradient>
    <linearGradient id="pyB" x1="0" y1="0" x2="1" y2="1">
      <stop offset="0%" stop-color="#FFD43B"/>
      <stop offset="100%" stop-color="#FFC83D"/>
    </linearGradient>
  </defs>
  <rect x="12" y="12" width="104" height="104" rx="22" fill="#101b2d"/>
  <path d="M64 24c-24 0-24 14-24 14v14h24v4H32c-8 0-14 8-14 18s6 18 14 18h10v-14c0-10 8-18 18-18h32c8 0 12-8 12-16V38c0-8-8-14-22-14H64z" fill="url(#pyA)"/>
  <circle cx="55" cy="38" r="3.6" fill="#ffffff"/>
  <path d="M64 104c24 0 24-14 24-14V76H64v-4h32c8 0 14-8 14-18s-6-18-14-18H86v14c0 10-8 18-18 18H36c-8 0-12 8-12 16v6c0 8 8 14 22 14H64z" fill="url(#pyB)"/>
  <circle cx="73" cy="90" r="3.6" fill="#3a2d00"/>
</svg>
